<?xml version="1.0" encoding="utf-8"?>
<!-- Generator: Adobe Illustrator 23.0.1, SVG Export Plug-In . SVG Version: 6.00 Build 0)  -->
<svg version="1.1" id="logo" xmlns="http://www.w3.org/2000/svg" xmlns:xlink="http://www.w3.org/1999/xlink" x="0px" y="0px"
	 viewBox="0 0 533.82 463.574" style="enable-background:new 0 0 533.82 463.574;" xml:space="preserve">
<style type="text/css">
  #logo{
    pointer-events:all;
    fill:#000;
    fill-opacity:0;
    animation-fill-mode: forwards;
    animation-iteration-count: 1;
    animation-name: fill;
    animation-timing-function: linear;
    animation-duration: .75s;
    animation-delay: 3.5s;

    }
  #logo:hover .st0{
    fill:#ffffff;
    stroke-opacity:.5
  }
  .st0 {
    stroke:#000000;
    stroke-width:2;
    stroke-opacity:.75;
    animation-fill-mode: forwards;
    animation-iteration-count: 1;
    animation-name: draw;
    animation-timing-function: linear;
  }
  #f {
    stroke-dasharray: 1075;
    stroke-dashoffset: 1075;
    animation-duration: .5s;
    animation-delay:1s;
  }
  #l {
    stroke-dasharray: 1075;
    stroke-dashoffset: 1075;
    animation-duration: .5s;
    animation-delay: 1.5s;
  }
  #a {
    stroke-dasharray: 1075;
    stroke-dashoffset: 1075;
    animation-duration: .5s;
    animation-delay: 2s;
  }
  #c {
    stroke-dasharray: 1075;
    stroke-dashoffset: 1075;
    animation-duration: .5s;
    animation-delay: 2.5s;
  }
  #k {
    stroke-dasharray: 1075;
    stroke-dashoffset: 1075;
    animation-duration: .5s;
    animation-delay: 3s;
  }

  @keyframes draw {
    to{
      stroke-dashoffset:0;
    }
  }
  @keyframes fill{
    from{
      fill-opacity:0;
    }
    to{
      fill-opacity:.9;
    }
  }

</style>
<g>
	<g>
		<path id="f" class="st0" d="M130,154.174c1.331-0.4,2.931-0.6,4.8-0.6c1.866,0,3.6,0.2,5.2,0.6c1.6,0.4,2.866,0.869,3.8,1.4
			c0.932,0.534,1.131,1.069,0.6,1.6c-5.069,5.334-9,11.469-11.8,18.4c-2.8,6.934-4.6,13.934-5.4,21
			c-0.8,7.068-0.669,13.799,0.4,20.199c1.065,6.4,2.866,11.669,5.4,15.801c0.8,1.469,1.166,2.799,1.1,4
			c-0.069,1.199-0.469,2.1-1.2,2.699c-0.734,0.6-1.734,0.801-3,0.6c-1.269-0.199-2.569-0.965-3.9-2.299
			c-3.469-3.332-6-7.601-7.6-12.801c-1.6-5.199-2.668-10.331-3.2-15.4c-0.669-5.865-0.8-11.931-0.4-18.199
			c-2.668,1.6-5.334,3.199-8,4.8c-2.269,1.469-4.834,2.969-7.7,4.5c-2.869,1.534-5.634,3.034-8.3,4.5c-1.2,13.868-2.534,27.8-4,41.8
			c-1.469,14-2.634,27.068-3.5,39.2c-0.869,12.134-1.269,22.8-1.2,32c0.065,9.2,0.965,15.931,2.7,20.2c0.666,1.73,0.2,3.166-1.4,4.3
			c-1.6,1.132-3.6,1.8-6,2s-4.834-0.101-7.3-0.899c-2.469-0.801-4.234-2.27-5.3-4.4c-1.734-3.469-2.8-8.5-3.2-15.1
			c-0.4-6.601-0.4-13.932,0-22c0.4-8.066,1.031-16.5,1.9-25.301c0.866-8.8,1.8-17.1,2.8-24.9c1-7.799,1.966-14.665,2.9-20.6
			c0.931-5.932,1.531-10.166,1.8-12.699c0.266-2.531,0.166-5.732-0.3-9.601c-0.469-3.866-1.6-7.966-3.4-12.3
			c-1.8-4.332-4.269-8.666-7.4-13c-3.134-4.332-7.134-8.266-12-11.8c-4.869-3.531-10.668-6.431-17.4-8.7
			c-6.734-2.266-14.634-3.466-23.7-3.6c-1.469,0-2.4-0.431-2.8-1.3c-0.4-0.865-0.5-1.831-0.3-2.9c0.2-1.065,0.565-2.131,1.1-3.2
			c0.531-1.066,1-1.731,1.4-2c0.266-0.131,2.231-1.566,5.9-4.3c3.666-2.731,8.631-6.1,14.9-10.1c6.266-4,13.666-8.431,22.2-13.3
			c8.531-4.866,17.766-9.531,27.7-14c9.931-4.466,20.4-8.466,31.4-12c11-3.531,22.066-6,33.2-7.4c11.131-1.4,22.2-1.431,33.2-0.1
			c11,1.334,21.5,4.534,31.5,9.6c2.131,1.069,3.1,2.668,2.9,4.8c-0.2,2.134-1,4.169-2.4,6.1c-1.4,1.935-3.1,3.5-5.1,4.7
			c-2,1.2-3.8,1.469-5.4,0.8c-8.669-3.6-17.469-6.031-26.4-7.3c-8.934-1.266-17.869-1.631-26.8-1.1
			c-8.935,0.534-17.734,1.734-26.4,3.6c-8.669,1.869-16.935,4.2-24.8,7c0.932,3.869,1.6,8.534,2,14c0.4,5.469,0.566,11.534,0.5,18.2
			c-0.068,6.669-0.334,13.834-0.8,21.5c-0.469,7.669-1.034,15.569-1.7,23.701c2.531-1.466,5.131-3,7.8-4.601
			c2.666-1.6,5.166-3.131,7.5-4.6c2.331-1.465,4.266-2.766,5.8-3.9c1.531-1.131,2.431-1.966,2.7-2.5c1.6-3.331,2.965-6.4,4.1-9.2
			c1.131-2.8,2.231-5.3,3.3-7.5c1.065-2.2,2.131-4,3.2-5.4C127.266,155.474,128.531,154.574,130,154.174z M74.2,201.574
			c0-0.4,0.231-2.201,0.7-5.4c0.466-3.2,0.966-7.166,1.5-11.9c0.531-4.731,1.1-10,1.7-15.8s1.131-11.6,1.6-17.4
			c0.465-5.8,0.8-11.3,1-16.5c0.2-5.2,0.231-9.6,0.1-13.2c-8.668,3.469-16.534,7.1-23.6,10.9c-7.069,3.8-13.1,7.3-18.1,10.5
			c-5,3.2-8.734,5.9-11.2,8.1c-2.469,2.2-3.369,3.369-2.7,3.5c8.8,2.269,16.1,5.1,21.9,8.5c5.8,3.4,10.5,6.935,14.1,10.6
			c3.6,3.669,6.3,7.3,8.1,10.9c1.8,3.6,3.031,6.769,3.7,9.5c0.666,2.734,1,4.834,1,6.3C74,201.643,74.065,202.107,74.2,201.574z"/>
		<path id="l" class="st0" d="M169.399,106.374c1.065-0.666,2.531-1.031,4.4-1.1c1.866-0.065,3.731,0.1,5.6,0.5
			c1.866,0.4,3.531,0.935,5,1.6c1.465,0.669,2.266,1.4,2.4,2.2c0.131,0.4-0.2,3.734-1,10c-0.8,6.269-1.8,14.369-3,24.3
			c-1.2,9.935-2.5,21.169-3.9,33.7c-1.4,12.534-2.669,25.334-3.8,38.4c-1.134,13.069-2,25.8-2.6,38.2
			c-0.6,12.4-0.769,23.434-0.5,33.1c0.266,9.669,1.131,17.4,2.6,23.2c1.466,5.8,3.731,8.632,6.8,8.5c2.8-0.134,5.531-2.132,8.2-6
			c2.666-3.866,5.166-8.831,7.5-14.899c2.332-6.066,4.531-12.801,6.6-20.201c2.066-7.399,3.931-14.699,5.6-21.899
			c1.666-7.2,3.131-13.899,4.4-20.101c1.266-6.199,2.3-11.1,3.1-14.699c0.266-1.466,1.166-2.1,2.7-1.9c1.531,0.2,2.5,1.035,2.9,2.5
			c0.131,0.4-0.035,2.2-0.5,5.4c-0.469,3.199-1.169,7.334-2.1,12.4c-0.935,5.068-2.069,10.734-3.4,17
			c-1.334,6.268-2.9,12.668-4.7,19.199c-1.8,6.535-3.8,12.9-6,19.1c-2.2,6.201-4.6,11.701-7.2,16.5
			c-2.6,4.801-5.369,8.666-8.3,11.601c-2.934,2.931-6.069,4.331-9.4,4.2c-4.935-0.135-9.069-2.27-12.4-6.4
			c-3.334-4.131-6.035-9.73-8.1-16.8c-2.069-7.065-3.569-15.266-4.5-24.601c-0.935-9.33-1.469-19.23-1.6-29.699
			c-0.134-10.466,0.1-21.266,0.7-32.4c0.6-11.131,1.4-21.932,2.4-32.4c1-10.465,2.1-20.4,3.3-29.8c1.2-9.4,2.366-17.666,3.5-24.8
			c1.131-7.131,2.2-12.831,3.2-17.1C168.299,108.908,168.999,106.643,169.399,106.374z"/>
		<path id="a" class="st0" d="M267.598,206.574c1.466-0.132,3.066-0.031,4.801,0.299c1.73,0.335,3.365,0.869,4.899,1.601
			c1.531,0.734,2.831,1.569,3.899,2.5c1.066,0.935,1.601,1.8,1.601,2.601c0,0.399-0.134,2.199-0.399,5.399
			c-0.27,3.2-0.569,7.269-0.9,12.2c-0.334,4.934-0.7,10.469-1.1,16.6c-0.4,6.135-0.701,12.4-0.9,18.801
			c-0.2,6.399-0.369,12.668-0.5,18.799c-0.135,6.135-0.068,11.635,0.199,16.5c0.266,4.869,0.732,8.835,1.4,11.9
			c0.666,3.068,1.6,4.801,2.801,5.2c1.73,0.531,4-1.435,6.799-5.899c2.801-4.467,5.766-10.232,8.9-17.301
			c3.131-7.065,6.301-14.831,9.5-23.3c3.2-8.466,6.131-16.431,8.801-23.899c2.665-7.467,4.931-13.801,6.799-19
			c1.866-5.201,3-8.132,3.4-8.801c0.531-0.8,1.231-1.3,2.1-1.5c0.866-0.199,1.632-0.131,2.301,0.2c0.666,0.335,1.131,0.899,1.4,1.7
			c0.266,0.8,0.131,1.668-0.4,2.6c-0.27,0.535-0.9,2.469-1.9,5.801c-1,3.334-2.269,7.6-3.8,12.799c-1.534,5.201-3.335,11-5.399,17.4
			c-2.069,6.4-4.335,12.935-6.801,19.6c-2.469,6.67-5.034,13.17-7.699,19.5c-2.67,6.335-5.4,11.969-8.201,16.9
			c-2.799,4.932-5.634,8.932-8.5,12c-2.868,3.066-5.699,4.666-8.5,4.801c-2.799,0.266-5.234-0.701-7.299-2.9
			c-2.069-2.2-3.835-5.2-5.301-9c-1.469-3.801-2.699-8.301-3.699-13.5c-1-5.2-1.77-10.801-2.301-16.801
			c-1.199,2.535-2.699,5.201-4.5,8c-1.8,2.801-3.834,5.469-6.1,8c-2.269,2.535-4.7,4.67-7.3,6.4c-2.6,1.734-5.3,2.734-8.1,3
			c-3.469,0.4-7.5,0.035-12.1-1.1c-4.6-1.131-9-3.466-13.2-7c-4.2-3.531-7.769-8.531-10.7-15c-2.931-6.466-4.4-14.832-4.4-25.1
			c0-1.467,0.2-4,0.6-7.601s1.168-7.665,2.3-12.2c1.131-4.531,2.731-9.3,4.8-14.3c2.065-5,4.731-9.601,8-13.8
			c3.266-4.2,7.231-7.7,11.9-10.5c4.666-2.801,10.2-4.332,16.6-4.6c5.731-0.266,10.531,0.634,14.4,2.699
			c3.866,2.068,7,4.635,9.399,7.7C265.999,209.508,266.798,206.708,267.598,206.574z M235.998,307.773c4,0,7.5-1.631,10.5-4.9
			c3-3.266,5.566-7.1,7.7-11.5c2.131-4.399,3.866-8.865,5.201-13.399c1.33-4.531,2.399-8,3.199-10.399
			c-0.135-7.201-0.068-14.132,0.2-20.801c0.266-6.666,0.601-12.8,1-18.4c-0.669-5.064-2.734-9.33-6.2-12.799
			c-3.469-3.467-8.6-4.932-15.4-4.4c-3.469,0.269-6.769,2.334-9.9,6.199c-3.134,3.869-5.935,8.535-8.4,14
			c-2.469,5.469-4.4,11.369-5.8,17.701c-1.4,6.334-2.034,12.1-1.9,17.299c0,1.069,0.065,2.835,0.2,5.301
			c0.131,2.469,0.431,5.234,0.9,8.3c0.465,3.069,1.1,6.234,1.9,9.5c0.8,3.269,1.931,6.269,3.4,9c1.466,2.734,3.3,4.969,5.5,6.7
			C230.298,306.908,232.93,307.773,235.998,307.773z"/>
		<path id="c" class="st0" d="M352.597,202.174c5.731,0,10.431,1.1,14.1,3.3c3.666,2.2,6.531,5,8.601,8.399c2.065,3.4,3.5,7.101,4.3,11.101
			s1.231,7.769,1.3,11.3c0.065,3.535-0.1,6.5-0.5,8.9s-0.734,3.668-1,3.8c-0.4,0.269-1.234,0.601-2.5,1
			c-1.269,0.399-2.6,0.634-4,0.7c-1.4,0.068-2.6-0.166-3.6-0.7c-1-0.531-1.369-1.531-1.101-3c0.132-0.931,0.266-2.531,0.4-4.8
			c0.131-2.266,0.131-4.832,0-7.7c-0.135-2.866-0.435-5.831-0.9-8.899c-0.469-3.066-1.269-5.9-2.399-8.5
			c-1.135-2.601-2.601-4.766-4.4-6.5c-1.8-1.732-4.034-2.666-6.7-2.801c-2.669-0.131-5.2,1.234-7.6,4.1
			c-2.4,2.869-4.534,6.734-6.4,11.601c-1.868,4.868-3.435,10.399-4.7,16.601c-1.269,6.199-2.134,12.533-2.6,19
			c-0.469,6.469-0.5,12.799-0.1,19c0.399,6.199,1.3,11.768,2.699,16.699c1.4,4.935,3.4,8.9,6,11.9c2.601,3,5.832,4.5,9.7,4.5
			c5.2,0.135,10.2-2,15-6.4s9.331-9.865,13.601-16.4c4.266-6.531,8.131-13.665,11.6-21.399c3.466-7.731,6.466-14.966,9-21.7
			c2.531-6.73,4.5-12.365,5.9-16.9c1.399-4.531,2.165-6.931,2.3-7.199c0.131-1.066,0.565-1.865,1.3-2.4
			c0.731-0.531,1.5-0.766,2.3-0.699c0.8,0.068,1.5,0.368,2.101,0.899c0.6,0.534,0.899,1.335,0.899,2.399c0,0.801-0.8,3.801-2.399,9
			c-1.601,5.201-3.801,11.5-6.601,18.9s-6.169,15.334-10.1,23.801c-3.935,8.469-8.234,16.268-12.9,23.399
			c-4.669,7.134-9.634,13.101-14.899,17.899c-5.27,4.801-10.7,7.201-16.301,7.201c-7.734,0.131-14.199-1.5-19.399-4.9
			s-9.369-7.865-12.5-13.4c-3.135-5.531-5.269-11.865-6.4-19c-1.131-7.131-1.399-14.432-0.8-21.9c0.6-7.465,2-14.799,4.2-22
			c2.2-7.199,5-13.6,8.399-19.199c3.4-5.6,7.4-10.131,12-13.6C342.097,204.107,347.128,202.309,352.597,202.174z"/>
		<path id="k" class="st0" d="M404.196,144.574c0.801-0.531,2.066-0.7,3.801-0.5c1.73,0.2,3.5,0.634,5.299,1.3
			c1.801,0.669,3.4,1.535,4.801,2.6c1.4,1.069,2.23,2.069,2.5,3c0,0.4-0.1,3.034-0.301,7.9c-0.199,4.869-0.533,11.134-1,18.8
			c-0.469,7.668-1,16.4-1.6,26.199c-0.6,9.801-1.234,19.835-1.9,30.101c1.467-3.2,3.232-6.531,5.301-10
			c2.065-3.466,4.432-6.601,7.1-9.399c2.666-2.801,5.631-5.132,8.9-7c3.266-1.866,6.9-2.866,10.9-3
			c8.799-0.4,15.564,1.434,20.299,5.5c4.732,4.068,6.701,10.5,5.9,19.299c-0.668,6.801-1.769,12.9-3.3,18.301
			c-1.534,5.4-3.368,10.199-5.5,14.4c-2.134,4.199-4.5,7.899-7.101,11.1c-2.6,3.199-5.234,5.934-7.899,8.199
			c1.731,2.27,3.399,4.469,5,6.601c1.601,2.134,3.2,4.069,4.8,5.8c1.6,1.734,3.231,3.2,4.9,4.4c1.666,1.199,3.432,2,5.3,2.4
			c1.601,0.399,3.665-0.467,6.2-2.601c2.531-2.132,5.331-5.132,8.4-9c3.064-3.866,6.299-8.399,9.699-13.601
			c3.4-5.199,6.666-10.699,9.801-16.5c3.131-5.799,6.031-11.73,8.699-17.799c2.666-6.066,4.865-11.832,6.6-17.301
			c0.801-2.131,1.732-3.631,2.801-4.5c1.065-0.865,2.065-1.199,3-1c0.932,0.2,1.6,0.869,2,2c0.4,1.135,0.266,2.568-0.4,4.301
			c-2,5.334-4.369,11.334-7.1,18c-2.734,6.668-5.734,13.469-9,20.399c-3.27,6.935-6.734,13.7-10.4,20.3
			c-3.668,6.6-7.334,12.5-11,17.7c-3.668,5.2-7.3,9.368-10.9,12.5c-3.6,3.134-7,4.7-10.199,4.7c-3.068,0-5.801-0.969-8.2-2.9
			s-4.7-4.4-6.899-7.4c-2.201-3-4.369-6.266-6.5-9.799c-2.135-3.531-4.4-6.832-6.801-9.9c-3.734,1.869-7,3.1-9.8,3.699
			c-2.8,0.601-4.669,0.835-5.601,0.701c-3.334-0.266-6.033-1-8.1-2.201c-2.068-1.199-3.635-2.531-4.699-4
			c-0.936,11.201-1.77,20.4-2.5,27.601c-0.734,7.2-1.234,10.931-1.5,11.2c-0.67,0.266-1.801,0.331-3.4,0.199
			c-1.6-0.134-3.301-0.469-5.1-1c-1.801-0.533-3.4-1.268-4.801-2.199c-1.4-0.935-2.166-2-2.3-3.2
			c-0.132-0.669-0.065-3.632,0.2-8.899c0.269-5.266,0.6-12,1-20.201c0.4-8.199,0.9-17.431,1.5-27.699
			c0.6-10.266,1.23-20.731,1.9-31.4c0.665-10.666,1.33-21.1,2-31.3c0.665-10.2,1.33-19.3,2-27.3c0.665-8,1.266-14.531,1.799-19.6
			C403.327,147.508,403.795,144.842,404.196,144.574z M413.396,267.974c1.466-1.601,2.966-2.831,4.5-3.7
			c1.531-0.865,2.831-1.365,3.899-1.5c4.266-0.131,8.066,0.7,11.4,2.5c3.332,1.801,6.4,4.035,9.2,6.7
			c2.132-3.466,4.2-7.266,6.2-11.399c2-4.132,3.699-8.332,5.1-12.601c1.4-4.266,2.432-8.399,3.1-12.399
			c0.666-4,0.801-7.566,0.4-10.701c-0.4-3.131-1.434-5.699-3.1-7.699c-1.669-2-4.1-3.066-7.301-3.2
			c-4.668-0.132-8.799,1.469-12.399,4.8c-3.601,3.334-6.734,7.301-9.399,11.9c-2.67,4.6-4.9,9.234-6.701,13.9
			c-1.799,4.668-3.168,8.199-4.1,10.6L413.396,267.974z M427.997,286.373c1.865,0,4.199-1.399,7-4.199c-2.27-2-4.601-3.531-7-4.6
			c-2.4-1.066-5.135-1.467-8.201-1.201c-1.469,0.135-2.299,0.77-2.5,1.9c-0.199,1.135,0.101,2.334,0.9,3.6
			c0.801,1.27,2.031,2.369,3.7,3.301C423.561,286.107,425.596,286.508,427.997,286.373z"/>
	</g>
</g>
</svg>
