<svg id="wave" data-name="Layer 1" xmlns="http://www.w3.org/2000/svg" width="264.36" height="97.56" viewBox="0 0 264.36 97.56">
  <title>wave</title>
  <g>
    <path d="M61.8,103.44c-7.56,0-13.08-4.8-15.72-14.4-1.44,5.4-5.52,14.4-15.36,14.4C16.56,103.44,7.2,94.8,7.2,77.28c0-13.92,
    2.16-13.44,2.16-36.6,0-9.84-7.56-10.08-7.92-15.12-.36-5.64,14-7.8,20-7.8s10.8,6.72,10.8,20.4c0,13.44-5.28,30-5.28,46.92,
    0,6.24,2.64,10,6,10,7.08,0,8.88-13.92,8.88-24.6,0-11.4-1.56-15.36-1.56-26.76,0-11.76,16-11.64,20.4-6.6-1.08,6.84-5.4,
    25.32-5.4,44,0,9.24,3.48,15.84,8.4,15.84,6.72,0,9.48-15.24,9.48-32.28,0-22.08-5.52-46.92-14.76-46.92a2.82,2.82,0,0,0-2.88,
    2.76c-.72,1.32-3.24,1.08-3.84-.36,0-6.36,5.88-13.92,16.92-13.92,12.72,0,21.24,13.68,21.24,43.68C89.88,79.08,78.36,103.44,61.8,
    103.44Z" transform="translate(-1.43 -6.24)"/>
    <path d="M155.52,90.12C151,97.8,147,103.32,137,103.32c-6.24,0-11-3.36-13.68-9.12-1.56,5.52-5.88,8.88-12.72,8.88-12,
    0-17.52-9.72-17.52-24,0-24.24,9.6-34.32,22.92-34.32,7.92,0,11.28,5.76,11.52,9.12,4-2.4,9.72-4.32,13.2-4.32,2.4,0,
    2.88.6,2.88,3.6s-7,16-7,35.76c0,6.12,1.8,7.56,3.48,7.56,4.44,0,7.92-5.16,11.4-11.16a112.83,112.83,0,0,0,
    7.32-16.08c.6-1.8,1.32-3.12,1.68-3.12.6,0,1.44,1.32,1.44,5C162,75.72,159.84,82.8,155.52,90.12ZM118.68,51.84c-3.6,
    0-8.52,10.92-8.52,26.52,0,10.8,1.56,16.56,5,16.56,5,0,5.76-10.68,5.76-13.32a151.84,151.84,0,0,1,1.32-18.24C123.24,
    55.56,121.32,51.84,118.68,51.84Z" transform="translate(-1.43 -6.24)"/>
    <path d="M211.31,86.28c-2.28,4.08-5.88,9.12-13.8,9.12a13,13,0,0,1-5.88-1.56c-1.44,2.52-6.71,9.84-13.07,9.84-15.12,
    0-23.28-31.44-24.48-43.92-.12-2.16-4.92-4.56-4.92-7.2,0-3.84,10.68-7.56,20-7.56,5.16,0,6.36,2.16,6.36,4.56,0,1.92-1.8,
    5.64-1.8,14,0,15.48,2.52,30.24,8.16,30.24,2.28,0,3.48-1.68,4.2-2.76-2.88-2.64-5.88-8.52-5.88-17.76,0-14.4,
    7.8-28.56,15.35-28.56,4,0,5.4,5.4,5.4,12.48,0,12.84-4.44,26.88-6.11,30.36a5.35,5.35,0,0,0,3,1.08c5.4,0,8.28-4.92,
    10.32-8.88,1.8-3.72,3.84-9.48,4.8-12,.36-1,.84-1.68,1.2-1.68,1,0,1.56,2.52,1.56,4.92C215.75,75.24,213.59,82.2,211.31,
    86.28Z" transform="translate(-1.43 -6.24)"/>
    <path d="M259.55,89.52c-3.36,5.88-10.32,14.28-24.72,14.28-15.36,0-27.48-7.92-27.48-26.88,0-21.12,13.32-32.28,22.44-32.28,
    9.84,0,16.92,5.16,16.92,13.44,0,11-5.52,24.48-13.44,24.48a10.07,10.07,0,0,1-6.36-2c1,11.64,5.4,17.28,11.28,17.28,6.6,0,
    13.56-6.36,17.64-13.44,3.24-5.64,6.24-13.56,7.56-16.8.36-1,.72-1.56,1-1.56.6,0,1.44,1.32,1.44,5.28C265.79,75.84,263.15,
    83.28,259.55,89.52Zm-22.2-35.64c-3.6,0-9.84,5.52-10.56,18.72,1.32,2,3.24,3.84,5.16,3.84,5,0,8.76-11,8.76-18C240.71,55,
    238.79,53.88,237.35,53.88Z" transform="translate(-1.43 -6.24)"/>
  </g>
</svg>
